<?xml version="1.0" encoding="UTF-8" standalone="no"?>
<!DOCTYPE svg PUBLIC "-//W3C//DTD SVG 1.1//EN"
 "http://www.w3.org/Graphics/SVG/1.1/DTD/svg11.dtd">
<!-- Generated by graphviz version 2.40.1 (20161225.0304)
 -->
<!-- Title: bubble Pages: 1 -->
<svg width="279pt" height="219pt"
 viewBox="0.00 0.00 279.00 219.00" xmlns="http://www.w3.org/2000/svg" xmlns:xlink="http://www.w3.org/1999/xlink">
<g id="graph0" class="graph" transform="scale(1 1) rotate(0) translate(4 215)">
<title>bubble</title>
<polygon fill="#ffffff" stroke="transparent" points="-4,4 -4,-215 275,-215 275,4 -4,4"/>
<!-- todos -->
<g id="node1" class="node">
<title>todos</title>
<polygon fill="#efefef" stroke="transparent" points="43.5,-132.5 43.5,-167.5 228.5,-167.5 228.5,-132.5 43.5,-132.5"/>
<polygon fill="none" stroke="#000000" points="43.5,-132.5 43.5,-167.5 228.5,-167.5 228.5,-132.5 43.5,-132.5"/>
<text text-anchor="start" x="50.2056" y="-145.3" font-family="Arial Bold" font-size="18.00" fill="#000000">todos</text>
<text text-anchor="start" x="94.2264" y="-145.3" font-family="Arial" font-size="14.00" fill="#000000">    </text>
<text text-anchor="start" x="128.4312" y="-145.3" font-family="Arial" font-size="14.00" fill="#666666">[BASE TABLE]</text>
<polygon fill="none" stroke="#000000" points="43.5,-102.5 43.5,-132.5 228.5,-132.5 228.5,-102.5 43.5,-102.5"/>
<text text-anchor="start" x="50.5" y="-113.9" font-family="Arial" font-size="14.00" fill="#000000">id    </text>
<text text-anchor="start" x="95.594" y="-113.9" font-family="Arial" font-size="14.00" fill="#666666">[bigint]</text>
<polygon fill="none" stroke="#000000" points="43.5,-72.5 43.5,-102.5 228.5,-102.5 228.5,-72.5 43.5,-72.5"/>
<text text-anchor="start" x="50.5" y="-83.9" font-family="Arial" font-size="14.00" fill="#000000">title    </text>
<text text-anchor="start" x="106.4818" y="-83.9" font-family="Arial" font-size="14.00" fill="#666666">[longtext]</text>
<polygon fill="none" stroke="#000000" points="43.5,-42.5 43.5,-72.5 228.5,-72.5 228.5,-42.5 43.5,-42.5"/>
<text text-anchor="start" x="50.5" y="-53.9" font-family="Arial" font-size="14.00" fill="#000000">status    </text>
<text text-anchor="start" x="122.0512" y="-53.9" font-family="Arial" font-size="14.00" fill="#666666">[tinyint(1)]</text>
</g>
</g>
</svg>
