<?xml version="1.0" encoding="UTF-8" standalone="no"?>
<!DOCTYPE svg PUBLIC "-//W3C//DTD SVG 1.1//EN"
 "http://www.w3.org/Graphics/SVG/1.1/DTD/svg11.dtd">
<!-- Generated by graphviz version 2.40.1 (20161225.0304)
 -->
<!-- Title: todos Pages: 1 -->
<svg width="285pt" height="225pt"
 viewBox="0.00 0.00 285.00 225.00" xmlns="http://www.w3.org/2000/svg" xmlns:xlink="http://www.w3.org/1999/xlink">
<g id="graph0" class="graph" transform="scale(1 1) rotate(0) translate(4 221)">
<title>todos</title>
<polygon fill="#ffffff" stroke="transparent" points="-4,4 -4,-221 281,-221 281,4 -4,4"/>
<!-- todos -->
<g id="node1" class="node">
<title>todos</title>
<polygon fill="#efefef" stroke="transparent" points="46.5,-135.5 46.5,-170.5 231.5,-170.5 231.5,-135.5 46.5,-135.5"/>
<polygon fill="none" stroke="#000000" points="46.5,-135.5 46.5,-170.5 231.5,-170.5 231.5,-135.5 46.5,-135.5"/>
<text text-anchor="start" x="53.2056" y="-148.3" font-family="Arial Bold" font-size="18.00" fill="#000000">todos</text>
<text text-anchor="start" x="97.2264" y="-148.3" font-family="Arial" font-size="14.00" fill="#000000">    </text>
<text text-anchor="start" x="131.4312" y="-148.3" font-family="Arial" font-size="14.00" fill="#666666">[BASE TABLE]</text>
<polygon fill="none" stroke="#000000" points="46.5,-105.5 46.5,-135.5 231.5,-135.5 231.5,-105.5 46.5,-105.5"/>
<text text-anchor="start" x="53.5" y="-116.9" font-family="Arial" font-size="14.00" fill="#000000">id </text>
<text text-anchor="start" x="68.2798" y="-116.9" font-family="Arial" font-size="14.00" fill="#666666">[bigint]</text>
<polygon fill="none" stroke="#000000" points="46.5,-75.5 46.5,-105.5 231.5,-105.5 231.5,-75.5 46.5,-75.5"/>
<text text-anchor="start" x="53.5" y="-86.9" font-family="Arial" font-size="14.00" fill="#000000">title </text>
<text text-anchor="start" x="79.1676" y="-86.9" font-family="Arial" font-size="14.00" fill="#666666">[longtext]</text>
<polygon fill="none" stroke="#000000" points="46.5,-45.5 46.5,-75.5 231.5,-75.5 231.5,-45.5 46.5,-45.5"/>
<text text-anchor="start" x="53.5" y="-56.9" font-family="Arial" font-size="14.00" fill="#000000">status </text>
<text text-anchor="start" x="94.737" y="-56.9" font-family="Arial" font-size="14.00" fill="#666666">[tinyint(1)]</text>
<polygon fill="none" stroke="#000000" stroke-width="3" points="44.5,-44.5 44.5,-172.5 232.5,-172.5 232.5,-44.5 44.5,-44.5"/>
</g>
</g>
</svg>
